# xmcd
#
# Track frame offsets: 
#        150
#        19107
#        37953
#        52652
#        68866
#        86293
#        99668
#        109328
#        124093
#        143770
#        156268
#
# Disc length: 2296 seconds
#
# Revision: 2
# Processed by: cddbd v1.5.2PL0 Copyright (c) Steve Scherf et al.
# Submitted via: ExactAudioCopy v0.99pb5
#
DISCID=8708f60b
DTITLE=Ray Charles - American Soul
DYEAR=2003
DGENRE=Blues
TTITLE0=I Can't Stop Loving You
TTITLE1=Over The Rainbow
TTITLE2=You Don't Know Me
TTITLE3=Georgia On My Mind
TTITLE4=What'd I Say
TTITLE5=Cryin' Time
TTITLE6=Busted
TTITLE7=Here We Go Again
TTITLE8=That Old Lucky Sun
TTITLE9=Unchain My Heart
TTITLE10=Your Cheatin' Heart
EXTD=
EXTT0=
EXTT1=
EXTT2=
EXTT3=
EXTT4=
EXTT5=
EXTT6=
EXTT7=
EXTT8=
EXTT9=
EXTT10=
PLAYORDER=
